HIERARCHY
ROOT Hips
{
	OFFSET 0.00 0.00 0.00
	CHANNELS 6 Xposition Yposition Zposition Yrotation Xrotation Zrotation
	JOINT LHipJoint
	{
		OFFSET	0.0000	0.0000	0.0000
		CHANNELS 3 Yrotation Xrotation Zrotation
		JOINT LeftUpLeg
		{
			OFFSET	1.0138	-0.0809	-0.0827
			CHANNELS 3 Yrotation Xrotation Zrotation
			JOINT LeftLeg
			{
				OFFSET	0.4110	-3.9095	0.3245
				CHANNELS 3 Yrotation Xrotation Zrotation
				JOINT LeftFoot
				{
					OFFSET	0.3810	-4.0555	-0.1470
					CHANNELS 3 Yrotation Xrotation Zrotation
					JOINT LeftToeBase
					{
						OFFSET	0.1396	-0.4462	1.3079
						CHANNELS 3 Yrotation Xrotation Zrotation
						End Site
						{
							OFFSET 0.0161 -0.0248 0.1809
						}
					}
				}
			}
		}
	}
	JOINT LowerBack
	{
		OFFSET	0.0000	0.7977	-0.3873
		CHANNELS 3 Yrotation Xrotation Zrotation
		JOINT Spine
		{
			OFFSET	0.0000	1.4131	0.1715
			CHANNELS 3 Yrotation Xrotation Zrotation
			JOINT Spine1
			{
				OFFSET	0.0000	1.4392	-0.1032
				CHANNELS 3 Yrotation Xrotation Zrotation
				JOINT LeftShoulder
				{
					OFFSET	0.2274	1.0382	0.4032
					CHANNELS 3 Yrotation Xrotation Zrotation
					JOINT LeftArm
					{
						OFFSET	1.4730	-0.2267	-0.0231
						CHANNELS 3 Yrotation Xrotation Zrotation
						JOINT LeftForeArm
						{
							OFFSET	1.6131	-1.8059	0.0081
							CHANNELS 3 Yrotation Xrotation Zrotation
							JOINT LeftHand
							{
								OFFSET	1.2197	-1.2423	1.6317
								CHANNELS 3 Yrotation Xrotation Zrotation
								JOINT LThumb
								{
									OFFSET	0.0109	-0.0753	0.4387
									CHANNELS 3 Yrotation Xrotation Zrotation
									End Site
									{
										OFFSET -0.2090 -0.0868 0.2097
									}
								}
								JOINT LeftFingerBase
								{
									OFFSET	0.1071	-0.1567	0.2607
									CHANNELS 3 Yrotation Xrotation Zrotation
									JOINT LeftHandFinger1
									{
										OFFSET	0.1706	-0.2492	0.6830
										CHANNELS 3 Yrotation Xrotation Zrotation
										End Site
										{
											OFFSET 0.0335 -0.1507 0.2071
										}
									}
								}
							}
						}
					}
				}
				JOINT Neck
				{
					OFFSET	0.0000	1.7498	0.2381
					CHANNELS 3 Yrotation Xrotation Zrotation
					JOINT Neck1
					{
						OFFSET	0.0000	0.5043	0.1959
						CHANNELS 3 Yrotation Xrotation Zrotation
						JOINT Head
						{
							OFFSET	0.0000	0.5044	0.1959
							CHANNELS 3 Yrotation Xrotation Zrotation
							End Site
							{
								OFFSET 0.0000 1.4798 -0.0693
							}
						}
					}
				}
				JOINT RightShoulder
				{
					OFFSET	-0.2274	1.0382	0.4032
					CHANNELS 3 Yrotation Xrotation Zrotation
					JOINT RightArm
					{
						OFFSET	-1.4730	-0.2267	-0.0231
						CHANNELS 3 Yrotation Xrotation Zrotation
						JOINT RightForeArm
						{
							OFFSET	-1.6131	-1.8059	0.0081
							CHANNELS 3 Yrotation Xrotation Zrotation
							JOINT RightHand
							{
								OFFSET	-1.2197	-1.2423	1.6317
								CHANNELS 3 Yrotation Xrotation Zrotation
								JOINT RThumb
								{
									OFFSET	-0.0109	-0.0753	0.4387
									CHANNELS 3 Yrotation Xrotation Zrotation
									End Site
									{
										OFFSET 0.2090 -0.0868 0.2097
									}
								}
								JOINT RightFingerBase
								{
									OFFSET	-0.1071	-0.1567	0.2607
									CHANNELS 3 Yrotation Xrotation Zrotation
									JOINT RightHandFinger1
									{
										OFFSET	-0.1706	-0.2492	0.6830
										CHANNELS 3 Yrotation Xrotation Zrotation
										End Site
										{
											OFFSET -0.0335 -0.1507 0.2071
										}
									}
								}
							}
						}
					}
				}
			}
		}
	}
	JOINT RHipJoint
	{
		OFFSET	0.0000	0.0000	0.0000
		CHANNELS 3 Yrotation Xrotation Zrotation
		JOINT RightUpLeg
		{
			OFFSET	-1.0138	-0.0809	-0.0827
			CHANNELS 3 Yrotation Xrotation Zrotation
			JOINT RightLeg
			{
				OFFSET	-0.4110	-3.9095	0.3245
				CHANNELS 3 Yrotation Xrotation Zrotation
				JOINT RightFoot
				{
					OFFSET	-0.3810	-4.0555	-0.1470
					CHANNELS 3 Yrotation Xrotation Zrotation
					JOINT RightToeBase
					{
						OFFSET	-0.1396	-0.4462	1.3079
						CHANNELS 3 Yrotation Xrotation Zrotation
						End Site
						{
							OFFSET -0.0161 -0.0248 0.1809
						}
					}
				}
			}
		}
	}
}
MOTION
Frames: 10
Frame Time: 0.0333333
1.2832 8.4298 1.1178 2.4574 -7.1786 1.9902 0.0000 -0.0000 0.0000 7.1139 -0.3684 -10.7558 8.2800 24.3703 3.1936 -2.1590 -17.5744 8.2292 0.0000 -0.5311 0.0000 0.0000 -0.0000 0.0000 -2.3475 4.9986 -2.1528 -4.9111 9.8546 -5.2777 0.3143 0.7976 -6.6010 -32.3389 -6.7215 -9.0097 18.2010 20.3828 1.1418 12.0362 3.4553 3.0187 21.6068 0.5391 12.4268 -14.7417 25.2237 -19.0449 -26.8992 12.6207 -19.9307 0.9635 5.1627 2.0410 1.4457 6.8180 2.2594 9.1667 -22.1192 -2.4797 13.2874 -0.4973 12.7801 16.4867 -40.8996 0.2360 93.8372 -47.3819 -49.1170 -3.8167 -12.4282 -1.9783 -24.4738 -3.2534 -10.2851 -1.4001 13.0337 3.5913 6.6909 -4.1731 2.5452 0.0000 -0.0000 0.0000 -10.2352 -13.1002 -7.5472 7.6395 17.1537 4.0499 17.9431 -0.3378 3.2252 -0.0000 -3.9388 -0.0000 
1.2190 8.4263 1.1820 3.5766 -7.1611 2.3290 0.0000 -0.0000 0.0000 7.1593 -0.0289 -10.4396 6.7875 24.5626 2.5100 -2.1602 -17.7912 8.0510 0.0000 -0.5418 -0.0000 0.0000 -0.0000 0.0000 -2.4031 4.8966 -2.2642 -5.0199 9.6426 -5.4992 0.2925 0.7958 -6.5881 -31.3406 -6.8996 -9.5821 18.7060 20.8560 1.3106 10.8462 4.5747 4.4008 21.6068 0.5391 12.4268 -14.7417 25.2237 -19.0449 -26.8993 12.6207 -19.9307 0.9721 5.1951 2.0621 1.4547 6.8504 2.2808 9.1319 -21.9867 -2.4629 13.1634 -0.4811 12.7507 16.5850 -40.6530 0.2864 93.9010 -47.3797 -49.1646 -3.7361 -12.6566 -2.2736 -24.4738 -3.2534 -10.2851 -1.4001 13.0337 3.5913 6.6909 -4.1731 2.5452 0.0000 -0.0000 0.0000 -10.4522 -12.7444 -7.4972 7.6379 17.2004 4.0291 17.5118 0.4623 2.4533 0.0000 -3.4921 0.0000 
1.1475 8.4285 1.2549 4.6705 -7.1707 2.5738 0.0000 -0.0000 0.0000 7.2763 0.4952 -9.9252 5.1594 24.4873 1.7490 -2.1459 -17.9237 7.8243 -0.0000 -0.5335 0.0000 0.0000 -0.0000 0.0000 -2.3972 4.7793 -2.3392 -4.9966 9.4117 -5.5457 0.3278 0.8027 -6.7331 -29.5981 -7.5187 -10.2814 19.6643 21.7420 1.6416 9.1756 5.9491 6.3088 21.6068 0.5391 12.4268 -14.7417 25.2237 -19.0448 -26.8993 12.6207 -19.9308 0.9667 5.2272 2.0553 1.4481 6.8823 2.2748 9.0860 -21.8390 -2.4669 13.0764 -0.4674 12.7031 16.5313 -40.3075 0.3149 94.1035 -47.3726 -49.3155 -3.7229 -12.9795 -2.6340 -24.4738 -3.2534 -10.2851 -1.4001 13.0337 3.5913 6.6909 -4.1731 2.5452 0.0000 -0.0000 0.0000 -10.6501 -12.8229 -7.4471 7.9684 18.6859 4.3029 16.5340 -0.3162 1.4708 0.0000 -3.1334 -0.0000 
1.0741 8.4400 1.3360 5.7766 -7.2694 2.6461 0.0000 -0.0000 0.0000 7.4295 1.3197 -9.1702 3.4082 23.9919 0.9375 -2.1172 -17.8970 7.5742 0.0000 -0.5372 0.0000 0.0000 -0.0000 0.0000 -2.3694 4.6714 -2.3103 -4.9228 9.2074 -5.3519 0.4408 0.8171 -6.9662 -27.8343 -8.0938 -11.0102 20.8809 22.8443 2.0816 7.8707 7.3802 8.0056 21.6068 0.5390 12.4268 -14.7417 25.2237 -19.0448 -26.8993 12.6207 -19.9307 0.9606 5.2688 2.0006 1.4385 6.9242 2.2205 9.1054 -21.7182 -2.5198 13.0338 -0.4570 12.6378 16.3833 -39.9547 0.3261 94.3034 -47.3652 -49.4644 -3.8762 -13.1716 -2.6827 -24.4738 -3.2534 -10.2851 -1.4001 13.0337 3.5913 6.6909 -4.1731 2.5452 0.0000 -0.0000 0.0000 -11.2971 -12.5392 -7.2440 8.2714 19.9090 4.5438 15.7891 -1.5521 0.5818 0.0000 -2.7811 -0.0000 
0.9972 8.4585 1.4216 6.8441 -7.3937 2.5275 0.0000 -0.0000 0.0000 7.6730 2.2974 -8.1556 1.5885 23.1783 0.1339 -2.0712 -17.7433 7.2748 0.0000 -0.5352 0.0000 0.0000 -0.0000 0.0000 -2.3233 4.5409 -2.1773 -4.8071 8.9617 -4.9667 0.5932 0.8303 -7.0889 -26.4699 -8.0698 -11.7703 21.7169 23.5867 2.3966 7.8531 8.7321 9.0841 21.6068 0.5391 12.4268 -14.7417 25.2237 -19.0448 -26.8992 12.6207 -19.9307 0.9563 5.3301 1.9396 1.4304 6.9862 2.1600 9.2082 -21.5362 -2.6062 12.9614 -0.4488 12.6312 16.2796 -39.7120 0.2742 94.4025 -47.3614 -49.5382 -4.2219 -13.0203 -2.1766 -24.4738 -3.2534 -10.2851 -1.4001 13.0337 3.5913 6.6909 -4.1732 2.5452 0.0000 -0.0000 0.0000 -12.1347 -11.8129 -6.7904 8.4128 20.4094 4.6332 15.2821 -2.4597 -0.2111 -0.0000 -2.4924 0.0000 
0.9122 8.4790 1.5066 7.8296 -7.3847 2.2570 0.0000 -0.0000 0.0000 8.0678 3.1129 -6.9133 -0.2639 22.2723 -0.6331 -2.0070 -17.5358 6.8994 0.0000 -0.4708 -0.0000 0.0000 -0.0000 0.0000 -2.2466 4.3437 -1.9828 -4.6270 8.5857 -4.4620 0.7281 0.8371 -7.0510 -25.3902 -7.5469 -12.5990 22.3140 24.1095 2.6277 8.5612 9.5645 9.8010 21.6068 0.5391 12.4268 -14.7417 25.2237 -19.0448 -26.8993 12.6207 -19.9307 0.9512 5.4064 1.9104 1.4230 7.0628 2.1317 9.3724 -21.3210 -2.7034 12.8758 -0.4429 12.6744 16.1624 -39.6291 0.1893 94.5306 -47.3563 -49.6336 -4.5893 -12.7402 -1.5653 -24.4738 -3.2534 -10.2852 -1.4000 13.0337 3.5913 6.6909 -4.1731 2.5452 0.0000 -0.0000 0.0000 -12.6752 -10.9438 -6.0658 8.4811 20.5390 4.6207 14.5352 -3.2202 -0.9298 0.0000 -2.3363 0.0000 
0.8213 8.4970 1.5894 8.8394 -7.2652 1.9963 0.0000 -0.0000 0.0000 8.5211 3.7377 -5.6370 -2.1468 21.3559 -1.3588 -1.9334 -17.2914 6.4698 -0.0000 -0.3940 -0.0000 0.0000 -0.0000 0.0000 -2.1878 4.1130 -1.8140 -4.4873 8.1407 -3.9937 0.8129 0.8390 -6.9667 -24.6354 -6.5590 -13.2808 22.6467 24.3980 2.7587 9.2399 9.8955 10.1591 21.6068 0.5391 12.4268 -14.7417 25.2237 -19.0448 -26.8992 12.6207 -19.9307 0.9511 5.4656 1.9079 1.4214 7.1224 2.1302 9.5137 -21.2098 -2.7507 12.8061 -0.4361 12.6854 15.9804 -39.6360 0.2240 94.7263 -47.3483 -49.7794 -4.7775 -12.5876 -1.2977 -24.4738 -3.2534 -10.2851 -1.4001 13.0337 3.5913 6.6909 -4.1731 2.5452 0.0000 -0.0000 0.0000 -12.8581 -10.1556 -5.2694 8.5167 20.7056 4.5823 13.4454 -4.0397 -1.6168 -0.0000 -2.2318 0.0000 
0.7301 8.5108 1.6704 9.9190 -7.1568 1.9009 0.0000 -0.0000 0.0000 8.9348 4.3425 -4.5217 -4.0142 20.3787 -2.0147 -1.8529 -16.9886 6.0089 0.0000 -0.3746 0.0000 0.0000 -0.0000 0.0000 -2.1686 3.9137 -1.7537 -4.4408 7.7537 -3.7195 0.8380 0.8374 -6.8830 -24.1459 -5.3265 -13.7024 22.7994 24.5298 2.8193 9.4124 10.0043 10.2915 21.6068 0.5391 12.4268 -14.7417 25.2237 -19.0448 -26.8993 12.6207 -19.9308 0.9497 5.4639 1.9211 1.4192 7.1208 2.1442 9.5023 -21.2371 -2.6824 12.7055 -0.4262 12.6997 15.8468 -39.6082 0.3578 94.9121 -47.3404 -49.9177 -4.7676 -12.6169 -1.2897 -24.4738 -3.2534 -10.2851 -1.4001 13.0337 3.5913 6.6909 -4.1731 2.5452 0.0000 -0.0000 0.0000 -12.9792 -9.5498 -4.6316 8.5238 21.1439 4.5789 12.3297 -4.9871 -2.3256 -0.0000 -2.1351 0.0000 
0.6410 8.5209 1.7470 10.9821 -7.0573 1.9267 0.0000 -0.0000 0.0000 9.2943 4.8096 -3.5388 -5.7159 19.5731 -2.5744 -1.7534 -16.5746 5.4970 -0.0000 -0.3907 -0.0000 0.0000 -0.0000 0.0000 -2.1451 3.7604 -1.7657 -4.3954 7.4549 -3.6017 0.8237 0.8337 -6.8081 -23.7999 -4.1471 -13.9015 22.8531 24.5760 2.8407 9.1786 10.0531 10.5309 21.6068 0.5391 12.4268 -14.7417 25.2237 -19.0448 -26.8993 12.6207 -19.9307 0.9349 5.4041 1.9382 1.4038 7.0612 2.1620 9.3517 -21.3881 -2.5852 12.5842 -0.4161 12.7389 15.7418 -39.5041 0.4671 95.1011 -47.3321 -50.0584 -4.7064 -12.7545 -1.2319 -24.4738 -3.2534 -10.2851 -1.4001 13.0337 3.5913 6.6909 -4.1731 2.5452 0.0000 -0.0000 0.0000 -13.2329 -9.1277 -4.1151 8.5447 21.7313 4.6212 11.4041 -5.9373 -3.0577 -0.0000 -2.0764 0.0000 
0.5534 8.5271 1.8170 11.9908 -6.9297 1.9616 0.0000 -0.0000 0.0000 9.5784 4.8200 -2.6262 -7.2036 19.3935 -3.1100 -1.6548 -16.1347 5.0020 -0.0000 -0.8427 0.0000 0.0000 -0.0000 0.0000 -2.1005 3.6401 -1.7639 -4.3076 7.2208 -3.5034 0.8173 0.8319 -6.7708 -23.4490 -3.2494 -13.9775 22.8216 24.5489 2.8282 8.9293 10.0879 10.9733 21.6068 0.5391 12.4268 -14.7417 25.2237 -19.0449 -26.8992 12.6207 -19.9307 0.9130 5.3315 1.9390 1.3808 6.9886 2.1634 9.2174 -21.5885 -2.6060 12.5057 -0.4070 12.7333 15.6242 -39.4058 0.4944 95.2775 -47.3240 -50.1898 -4.7267 -12.8451 -1.0064 -24.4738 -3.2534 -10.2851 -1.4000 13.0337 3.5913 6.6909 -4.1731 2.5452 0.0000 -0.0000 0.0000 -13.5322 -8.8510 -3.5931 8.5527 22.3703 4.6819 10.6078 -6.8381 -3.7839 -0.0000 -2.0397 0.0000 
